<?xml version="1.0" encoding="UTF-8"?>
<svg id="Layer_1" data-name="Layer 1" xmlns="http://www.w3.org/2000/svg" viewBox="0 0 2180.45 870.4">
  <defs>
    <style>
      .cls-1, .cls-2 {
        fill: #003029;
      }

      .cls-3 {
        fill: #22a699;
      }

      .cls-3, .cls-2 {
        fill-rule: evenodd;
      }
    </style>
  </defs>
  <g>
    <path class="cls-1" d="M498.62,790.74c-34.16,0-59.79-8.13-76.87-24.39-17.08-16.25-25.62-41.16-25.62-74.7s9.52-55.72,28.55-71.46c19.03-15.74,47.59-23.62,85.66-23.62h80.26l4.32,64.52h-84.27c-12.76,0-22.33,2.52-28.71,7.56-6.38,5.05-9.57,12.71-9.57,23s4.06,18.27,12.19,23.31c8.13,5.05,20.22,7.56,36.27,7.56,22.43,0,39.2-2.57,50.32-7.72,11.11-5.14,16.67-13.17,16.67-24.08l6.48,46.61c-1.23,12.14-6.69,22.18-16.36,30.1-9.68,7.93-21.56,13.79-35.65,17.6-14.1,3.81-28.66,5.71-43.68,5.71Zm89.21-4.63v-203.12c0-14.82-4.94-26.24-14.82-34.27-9.88-8.03-23.88-12.04-41.98-12.04-11.94,0-23.77,1.91-35.5,5.71-11.73,3.81-22.12,9.31-31.18,16.51l-52.48-51.55c12.76-14.61,29.63-25.98,50.63-34.11,20.99-8.13,44.25-12.19,69.77-12.19,42.18,0,74.81,10.39,97.86,31.18,23.05,20.79,34.57,50.11,34.57,87.98v205.9h-76.87Z"/>
    <path class="cls-1" d="M821.88,337.27v342.96c0,7.62,2.21,13.58,6.64,17.9,4.42,4.32,10.75,6.48,18.99,6.48h14.2v81.5h-43.22c-25.73,0-45.69-7.41-59.89-22.23-14.2-14.82-21.3-35.7-21.3-62.66V337.27h84.58Z"/>
    <path class="cls-1" d="M904.98,421.85v-84.58h84.58v84.58h-84.58Zm0,364.26V465.68h84.58v320.43h-84.58Z"/>
    <path class="cls-1" d="M1193.05,790.74c-45.89,0-81.5-12.96-106.81-38.9-25.31-25.93-37.97-62.46-37.97-109.59v-34.27c0-46.71,12.66-82.89,37.97-108.51,25.31-25.62,60.91-38.43,106.81-38.43,26.34,0,50.16,4.43,71.46,13.27,21.3,8.85,38.23,21.51,50.78,37.97l-54.64,53.1c-7.62-7.2-16.72-12.81-27.32-16.82-10.6-4.01-21.66-6.02-33.18-6.02-21.41,0-37.97,5.71-49.7,17.13-11.73,11.42-17.6,27.53-17.6,48.31v34.27c0,21.41,5.87,37.92,17.6,49.55,11.73,11.63,28.29,17.44,49.7,17.44,11.52,0,22.58-2.16,33.18-6.48,10.6-4.32,19.7-10.5,27.32-18.52l54.64,56.18c-12.55,16.05-29.48,28.45-50.78,37.2-21.3,8.75-45.12,13.12-71.46,13.12Z"/>
    <path class="cls-1" d="M1490.69,790.74c-44.04,0-78.1-12.19-102.18-36.58-24.08-24.39-36.12-58.7-36.12-102.95v-52.17c0-43.84,12.04-77.79,36.12-101.87,24.08-24.08,58.14-36.12,102.18-36.12s78.1,12.04,102.18,36.12c24.08,24.08,36.12,58.04,36.12,101.87v53.1c0,44.04-12.04,78.15-36.12,102.33-24.08,24.18-58.14,36.27-102.18,36.27Zm-.31-81.5c17.08,0,30.35-4.99,39.82-14.97,9.46-9.98,14.2-24.03,14.2-42.14v-53.1c0-17.9-4.74-31.8-14.2-41.67-9.47-9.88-22.74-14.82-39.82-14.82s-30,4.94-39.36,14.82c-9.37,9.88-14.05,23.77-14.05,41.67v53.1c0,18.11,4.68,32.16,14.05,42.14,9.36,9.98,22.48,14.97,39.36,14.97Z"/>
    <path class="cls-1" d="M1695.42,786.11V465.68h84.58v320.43h-84.58Zm186.76,0v-184.91c0-18.72-4.58-33.19-13.74-43.37-9.16-10.19-22.28-15.28-39.36-15.28-15.64,0-27.73,4.37-36.27,13.12-8.54,8.75-12.81,21.04-12.81,36.89l-6.48-71c9.26-19.34,20.94-34.27,35.04-44.76,14.09-10.5,30.92-15.74,50.47-15.74,34.37,0,60.91,12.19,79.64,36.58,18.72,24.39,28.09,58.81,28.09,103.26v185.22h-84.58Zm186.76,0v-184.91c0-18.72-4.48-33.19-13.43-43.37-8.95-10.19-21.66-15.28-38.12-15.28s-28.76,4.89-37.51,14.66c-8.75,9.78-13.12,23.62-13.12,41.52l-15.74-74.09c10.08-20.37,23.25-36.06,39.51-47.08,16.26-11.01,34.16-16.52,53.71-16.52,34.78,0,61.69,12.19,80.72,36.58,19.03,24.39,28.55,58.81,28.55,103.26v185.22h-84.58Z"/>
  </g>
  <path class="cls-3" d="M540.47,396.42c58.41,0,111.74,21.76,152.36,57.61l-3.29-65.19c-4.41-88.27-62.61-161.47-141.95-188.65v48.27c6.88,8.15,10.71,18.56,10.71,29.51,0,25-19.99,45.33-44.55,45.33s-44.59-20.34-44.59-45.33c0-10.97,3.85-21.39,10.75-29.53v-59.6c-.23,0-.45-.02-.68-.02h-221.75c-.23,0-.45,.02-.68,.02v59.61c6.9,8.16,10.75,18.57,10.75,29.51,0,25-20.01,45.33-44.59,45.33s-44.56-20.34-44.56-45.33c0-10.95,3.84-21.36,10.71-29.51v-48.27c-79.34,27.18-137.54,100.39-141.95,188.65l-20.14,401.69c-.91,17.4,4.77,32.69,16.77,45.29,12,12.63,26.99,19.04,44.4,19.04H509.39c-112.46-15.18-199.19-111.54-199.19-228.17,0-127.19,103.08-230.28,230.27-230.28Z"/>
  <path class="cls-2" d="M368.35,15.53c45.12,0,86.16,18.95,115.87,49.42,29.72,30.51,48.19,72.58,48.19,118.88v70.84c6.55,5.52,10.71,13.91,10.71,23.3,0,16.66-13.14,30.15-29.37,30.15s-29.41-13.5-29.41-30.15c0-9.39,4.16-17.77,10.75-23.3v-70.84c0-35.73-14.27-68.23-37.25-91.8-22.98-23.56-54.66-38.21-89.49-38.21s-66.51,14.65-89.49,38.21c-22.98,23.56-37.25,56.06-37.25,91.8v70.84c6.55,5.52,10.75,13.91,10.75,23.3,0,16.66-13.17,30.15-29.41,30.15s-29.38-13.5-29.38-30.15c0-9.39,4.17-17.77,10.71-23.3v-70.84c0-46.3,18.47-88.37,48.19-118.88,29.72-30.47,70.75-49.42,115.87-49.42Z"/>
</svg>